<svg width="47" height="32" viewBox="0 0 47 32" xmlns="http://www.w3.org/2000/svg" fill="currentColor">
  <path d="M7.148 2.857c.654.988-.01 4.282.084 5.508.153 2.017.4 4.065.618 6.08.52 4.807.913 9.526 1.224 14.35.177 2.742 3.846 1.437 3.29-.357.17-4.746-.54-9.397-1.13-14.094-.508-4.05-.358-8.33-1.243-12.283C9.794 1.181 8.63.705 7.874 1.2l-.352.23c-.451.295-.699.937-.374 1.427zM21.372 28.663c-.584-1.031.308-4.27.3-5.5-.011-2.023-.115-4.083-.192-6.108a328.653 328.653 0 01-.22-14.402c.014-2.747-3.737-1.701-3.307.127-.5 4.723-.118 9.412.143 14.139.225 4.075-.223 8.335.384 12.34.135.891 1.263 1.447 2.052 1.006l.367-.205c.47-.263.762-.886.473-1.397zM27.823 2.74c.602 1.021-.233 4.276-.205 5.505.047 2.022.187 4.08.3 6.104.268 4.828.413 9.561.471 14.395.033 2.747 3.765 1.636 3.303-.184.418-4.731-.046-9.413-.389-14.135-.296-4.07.077-8.338-.6-12.33-.15-.89-1.288-1.426-2.069-.971l-.363.211c-.466.271-.747.9-.448 1.406zM37.148 2.857c.654.988-.01 4.282.084 5.508.153 2.017.4 4.065.618 6.08.52 4.807.913 9.526 1.224 14.35.177 2.742 3.846 1.437 3.29-.357.17-4.746-.54-9.397-1.13-14.094-.508-4.05-.358-8.33-1.243-12.283-.197-.88-1.361-1.356-2.117-.861l-.352.23c-.451.295-.699.937-.374 1.427z"/>
  <path d="M2.92 4.57c1.863.506 6.443 4.523 8.343 5.74 3.125 2.002 6.35 3.959 9.51 5.905a1102.27 1102.27 0 0122.316 14.13c4.23 2.746 4.368-1.635 1.348-3.07-7.051-5.145-14.461-9.47-21.874-13.94-6.39-3.852-12.752-8.49-19.21-11.932C1.913.636.529 1.087.84 2.229l.145.53c.186.682 1.01 1.561 1.934 1.812z"/>
</svg>
